<svg width="22" height="22" viewBox="0 0 22 22" fill="none" xmlns="http://www.w3.org/2000/svg">
<path d="M3.66666 0H6.41666C8.44169 0 10.0833 1.64162 10.0833 3.66666V6.41666C10.0833 8.44169 8.44169 10.0833 6.41666 10.0833H3.66666C1.64162 10.0834 0 8.44174 0 6.41666V3.66666C0 1.64162 1.64162 0 3.66666 0Z" fill="#FFC700"/>
<path d="M15.5833 0H18.3333C20.3583 0 21.9999 1.64162 21.9999 3.66666V6.41666C21.9999 8.44169 20.3583 10.0833 18.3333 10.0833H15.5833C13.5582 10.0833 11.9166 8.44169 11.9166 6.41666V3.66666C11.9166 1.64162 13.5582 0 15.5833 0Z" fill="black"/>
<path d="M3.66666 11.9167H6.41666C8.44169 11.9167 10.0833 13.5583 10.0833 15.5833V18.3333C10.0833 20.3584 8.44169 22 6.41666 22H3.66666C1.64162 22 0 20.3584 0 18.3334V15.5834C0 13.5583 1.64162 11.9167 3.66666 11.9167Z" fill="#FFC700"/>
<path d="M15.5833 11.9167H18.3333C20.3583 11.9167 21.9999 13.5583 21.9999 15.5833V18.3333C21.9999 20.3584 20.3583 22 18.3333 22H15.5833C13.5582 22 11.9166 20.3584 11.9166 18.3334V15.5834C11.9166 13.5583 13.5582 11.9167 15.5833 11.9167Z" fill="#FFC700"/>
</svg>
