<svg width="22" height="20" viewBox="0 0 22 20" fill="none" xmlns="http://www.w3.org/2000/svg">
<path d="M16.0396 0C15.0078 0.0160489 13.9985 0.304076 13.1137 0.834995C12.2288 1.36591 11.4997 2.12093 11 3.02378C10.5003 2.12093 9.77118 1.36591 8.88632 0.834995C8.00146 0.304076 6.99216 0.0160489 5.96037 0C4.31556 0.0714627 2.76589 0.790998 1.64991 2.00141C0.533927 3.21182 -0.0576437 4.81471 0.00443589 6.4599C0.00443589 10.6263 4.38983 15.1766 8.06785 18.2618C8.88905 18.9519 9.92734 19.3302 11 19.3302C12.0727 19.3302 13.1109 18.9519 13.9321 18.2618C17.6102 15.1766 21.9956 10.6263 21.9956 6.4599C22.0576 4.81471 21.4661 3.21182 20.3501 2.00141C19.2341 0.790998 17.6844 0.0714627 16.0396 0Z" fill="#FFC700"/>
</svg>
