<svg width="22" height="22" viewBox="0 0 22 22" fill="none" xmlns="http://www.w3.org/2000/svg">
<path d="M11.0001 12.6941C10.2708 12.6941 9.5713 12.9874 9.05558 13.5094C8.53985 14.0315 8.25012 14.7395 8.25012 15.4778V21.9972H13.7501V15.4778C13.7501 14.7395 13.4604 14.0315 12.9447 13.5094C12.4289 12.9874 11.7295 12.6941 11.0001 12.6941Z" fill="black"/>
<path d="M12.2265 0.476453C11.8898 0.169723 11.4529 0 11 0C10.5471 0 10.1102 0.169723 9.7735 0.476453L0 9.38057V19.0307C0 19.8182 0.309047 20.5735 0.859153 21.1303C1.40926 21.6872 2.15536 22 2.93333 22H6.41667V15.4778C6.41667 14.2473 6.89955 13.0673 7.75909 12.1972C8.61864 11.3271 9.78442 10.8383 11 10.8383C12.2156 10.8383 13.3814 11.3271 14.2409 12.1972C15.1004 13.0673 15.5833 14.2473 15.5833 15.4778V21.9972H19.0667C19.8446 21.9972 20.5907 21.6844 21.1408 21.1275C21.691 20.5707 22 19.8154 22 19.0279V9.37779L12.2265 0.476453Z" fill="#FFC700"/>
</svg>
