<svg width="22" height="22" viewBox="0 0 22 22" fill="none" xmlns="http://www.w3.org/2000/svg">
<path d="M17.4167 15.5833C16.451 15.583 15.5025 15.3282 14.6667 14.8445C13.8309 15.3282 12.8824 15.583 11.9167 15.5833H10.0834C9.11636 15.5821 8.16715 15.3233 7.33336 14.8335C6.4996 15.3234 5.55037 15.5822 4.58336 15.5833H3.66669C2.70018 15.583 1.75111 15.3258 0.916687 14.8381V19.25C0.916687 19.9793 1.20642 20.6788 1.72214 21.1945C2.23787 21.7103 2.93734 22 3.66669 22H18.3334C19.0627 22 19.7622 21.7103 20.2779 21.1945C20.7936 20.6788 21.0834 19.9793 21.0834 19.25V14.839C20.2487 15.326 19.2997 15.5829 18.3334 15.5833H17.4167Z" fill="black"/>
<path d="M15.5833 0V5.5H13.75V0H8.25V5.5H6.41667V0H2.01667L0.022 8.96775L0 10.0833C0 11.0558 0.386308 11.9884 1.07394 12.6761C1.76158 13.3637 2.69421 13.75 3.66667 13.75H4.58333C5.10574 13.7483 5.62167 13.6343 6.09615 13.4157C6.57063 13.1972 6.99256 12.8791 7.33333 12.4832C7.67411 12.8791 8.09604 13.1972 8.57052 13.4157C9.045 13.6343 9.56093 13.7483 10.0833 13.75H11.9167C12.4372 13.7503 12.9517 13.6395 13.426 13.4249C13.9002 13.2104 14.3232 12.8972 14.6667 12.5061C15.0101 12.8972 15.4331 13.2104 15.9074 13.4249C16.3816 13.6395 16.8962 13.7503 17.4167 13.75H18.3333C19.3058 13.75 20.2384 13.3637 20.9261 12.6761C21.6137 11.9884 22 11.0558 22 10.0833V9.16667L19.9833 0H15.5833Z" fill="#FFC700"/>
</svg>
